<mxfile host="app.diagrams.net" modified="2023-02-13T21:03:13.555Z" agent="5.0 (Windows NT 10.0; Win64; x64) AppleWebKit/537.36 (KHTML, like Gecko) Chrome/109.0.0.0 Safari/537.36" etag="sRqRP5PyyiP8hMGEBXXg" version="20.8.13" type="github">
  <diagram name="Page-1" id="Sc_ymHWD848U7Gl_cyW6">
    <mxGraphModel dx="1050" dy="1673" grid="1" gridSize="10" guides="1" tooltips="1" connect="1" arrows="1" fold="1" page="1" pageScale="1" pageWidth="850" pageHeight="1100" math="0" shadow="0">
      <root>
        <mxCell id="0" />
        <mxCell id="1" parent="0" />
        <mxCell id="RerQqO0prX1beFf3zBsB-1" value="" style="rounded=0;whiteSpace=wrap;html=1;" vertex="1" parent="1">
          <mxGeometry x="80" y="-520" width="680" height="400" as="geometry" />
        </mxCell>
        <mxCell id="RerQqO0prX1beFf3zBsB-2" value="" style="rounded=0;whiteSpace=wrap;html=1;" vertex="1" parent="1">
          <mxGeometry x="80" y="-520" width="680" height="50" as="geometry" />
        </mxCell>
        <mxCell id="RerQqO0prX1beFf3zBsB-3" value="" style="rounded=0;whiteSpace=wrap;html=1;" vertex="1" parent="1">
          <mxGeometry x="80" y="-470" width="680" height="50" as="geometry" />
        </mxCell>
        <mxCell id="RerQqO0prX1beFf3zBsB-4" value="" style="rounded=0;whiteSpace=wrap;html=1;" vertex="1" parent="1">
          <mxGeometry x="80" y="-420" width="680" height="50" as="geometry" />
        </mxCell>
        <mxCell id="RerQqO0prX1beFf3zBsB-5" value="" style="rounded=0;whiteSpace=wrap;html=1;" vertex="1" parent="1">
          <mxGeometry x="80" y="-370" width="680" height="50" as="geometry" />
        </mxCell>
        <mxCell id="RerQqO0prX1beFf3zBsB-6" value="" style="rounded=0;whiteSpace=wrap;html=1;" vertex="1" parent="1">
          <mxGeometry x="80" y="-320" width="680" height="80" as="geometry" />
        </mxCell>
      </root>
    </mxGraphModel>
  </diagram>
</mxfile>
